<svg xmlns="http://www.w3.org/2000/svg" xmlns:xlink="http://www.w3.org/1999/xlink" width="88.871" height="39.486" viewBox="0 0 88.871 39.486"><defs><linearGradient id="a" y1="0.5" x2="1" y2="0.5" gradientUnits="objectBoundingBox"><stop offset="0" stop-color="#ca7327"/><stop offset="0.273" stop-color="#c37430"/><stop offset="0.567" stop-color="#b87840"/><stop offset="0.865" stop-color="#94571a"/><stop offset="0.99" stop-color="#8a531e"/></linearGradient><linearGradient id="o" x1="0" y1="0.5" x2="1" y2="0.5" xlink:href="#a"/><linearGradient id="r" x1="0" y1="0.5" x2="1" y2="0.5" xlink:href="#a"/><linearGradient id="u" x1="0" y1="0.5" x2="1" y2="0.5" xlink:href="#a"/></defs><g transform="translate(-2929.691 -396.818)"><g transform="translate(2974.127 424.2)"><path d="M3126.048,517.816" transform="translate(-3126.048 -517.816)" fill="#fff"/></g><g transform="translate(2929.691 396.818)"><g transform="translate(24.212 0.027)"><path d="M3077.4,403.48a12.084,12.084,0,0,0-7.953-6.129,13.145,13.145,0,0,0-4.735-.255,13.743,13.743,0,0,0-4.564,1.425,13.51,13.51,0,0,0-2.1,1.346,13.015,13.015,0,0,0-1.868,1.8,12.745,12.745,0,0,0-2.532,4.8,13.909,13.909,0,0,0,.249,8.257,9.765,9.765,0,0,0-8.756-4.638,10.767,10.767,0,0,0,4.332-2.047l.019-.018a5.808,5.808,0,0,0,1.216-1.218,6.665,6.665,0,0,0,1-1.934,5.89,5.89,0,0,0,.273-2.129,6.05,6.05,0,0,0-.527-2.149,5.441,5.441,0,0,0-1.329-1.719,6.243,6.243,0,0,0-1.836-1.094,8.737,8.737,0,0,0-1.6-.469q-.821-.155-1.641-.273a11.762,11.762,0,0,0-1.367-.078h-4.546v-.014h-2.447v27.386h2.447v-.435a.364.364,0,0,0,.014-.1v-9.357c0-1.2-.006-2.425-.014-3.656v-13a.788.788,0,0,1,.073-.179c.065-.117.215-.176.449-.176q.078,0,.625-.019l.348-.01c.076,0,.16,0,.25-.005.191,0,.388,0,.593,0q.645,0,1.192-.019l.518-.017c2.474.119,5.619,1.042,6.154,5.878,0,.136.009.271.009.41a10.548,10.548,0,0,1-.2,2.071c-.017.092-.04.18-.061.269a5.03,5.03,0,0,1-2.227,2.676c-.312.178-.63.339-.952.486a11.711,11.711,0,0,1-4.156.832h-.161v.407h1.312c4.584.983,8.243,3.1,10.265,5.75,0,0,3.478,4.927,7.856,6.87a.01.01,0,0,1,0,0,12.718,12.718,0,0,0,3.914,1.269,12.12,12.12,0,0,0,2.444.112,11.153,11.153,0,0,0,4.794-1.381,12.574,12.574,0,0,0,3.945-3.486,14.864,14.864,0,0,0,2.441-4.974,15.278,15.278,0,0,0,.467-5.673A14.87,14.87,0,0,0,3077.4,403.48Zm-.987,10.355a13.16,13.16,0,0,1-1.869,4.263,11.8,11.8,0,0,1-7.293,4.978,9.476,9.476,0,0,1-4.478-.181,9.943,9.943,0,0,1-4.018-2.313,11.338,11.338,0,0,1-2.695-4,14.8,14.8,0,0,1-1.03-4.753,16.607,16.607,0,0,1,.43-4.781,16.117,16.117,0,0,1,1.778-4.438,11.8,11.8,0,0,1,3.17-3.563,9.265,9.265,0,0,1,4.327-1.716,9.034,9.034,0,0,1,4.55.634,10.814,10.814,0,0,1,3.769,2.707,14.465,14.465,0,0,1,2.533,3.92,14.173,14.173,0,0,1,1.172,4.544A14.586,14.586,0,0,1,3076.411,413.834Z" transform="translate(-3036.68 -396.939)" fill="url(#a)"/></g><g transform="translate(68.63 0)"><rect width="2.447" height="27.386" fill="url(#a)"/></g><g transform="translate(72.966 0.007)"><path d="M3268.014,416.572a8.879,8.879,0,0,0-4.219-6.544q-1.211-.723-2.461-1.348-1.445-.664-2.832-1.446a18.787,18.787,0,0,1-2.637-1.8,9.216,9.216,0,0,1-.957-.938,4.519,4.519,0,0,1-.723-1.094,3.824,3.824,0,0,1-.273-1.621,3.72,3.72,0,0,1,.43-1.582,3.957,3.957,0,0,1,1.055-1.27,6.216,6.216,0,0,1,1.445-.859,7.734,7.734,0,0,1,1.641-.488,12.819,12.819,0,0,1,1.641-.2c.144-.011.287-.017.431-.021h.039c.141,0,.282,0,.424,0h4.114v-.52h-1.792l-.313,0h-.2c-.315,0-.646,0-1.049,0-.76,0-1.58.028-2.44.093a11.492,11.492,0,0,0-2.5.469,8.668,8.668,0,0,0-2.246,1.055,5.17,5.17,0,0,0-1.66,1.778,5.536,5.536,0,0,0-.664,1.66,6.175,6.175,0,0,0-.137,1.758,5.826,5.826,0,0,0,.371,1.7,4.469,4.469,0,0,0,.938,1.485,8.9,8.9,0,0,0,.8.781q.41.352.84.7a17.368,17.368,0,0,0,2.344,1.5q1.21.645,2.461,1.231,1.016.469,2.11,1.074a11.025,11.025,0,0,1,1.992,1.406,8.148,8.148,0,0,1,1.524,1.817,5.193,5.193,0,0,1,.742,2.266,6.759,6.759,0,0,1-.312,2.481,4.974,4.974,0,0,1-1.211,2.051,5.793,5.793,0,0,1-2.871,1.406,14.816,14.816,0,0,1-2.449.245h-.057c-.2,0-.4,0-.6,0h-4.7v.464h.837l2.347,0h1c.274,0,.534,0,.794,0a18.292,18.292,0,0,0,1.934-.1,9.4,9.4,0,0,0,1.826-.359c.313-.078.576-.181.889-.286a3.284,3.284,0,0,0,.9-.469,6.127,6.127,0,0,0,1.836-1.7,9.47,9.47,0,0,0,1.211-2.207A6.227,6.227,0,0,0,3268.014,416.572Z" transform="translate(-3252.12 -396.848)" fill="url(#a)"/></g><g transform="translate(0 0)"><path d="M2929.691,397.247v.071h2.947l.675-.007h4.371c.109,0,.221.008.328.014a1.546,1.546,0,0,1,1.113.41,2.318,2.318,0,0,1,.489.918,2,2,0,0,1,.078.547v16.414h0V424.2h2.422V399.357a6.627,6.627,0,0,1,.234-1.133,1.422,1.422,0,0,1,1.25-.9h.436l8.044-.014v-.494h-22.388Z" transform="translate(-2929.691 -396.818)" fill="url(#a)"/></g></g><g transform="translate(2956.326 425.365)"><g transform="translate(0.215)"><path d="M3051.571,534.7a1.425,1.425,0,0,1,.238.808,1.4,1.4,0,0,1-.374,1,1.707,1.707,0,0,1-1.276.4h-1.821v-5.216h1.574a1.817,1.817,0,0,1,1.272.366,1.271,1.271,0,0,1,.387.97,1.406,1.406,0,0,1-.175.7,1.1,1.1,0,0,1-.583.472A1.28,1.28,0,0,1,3051.571,534.7Zm-2.365-.63h.646a.737.737,0,0,0,.655-.285,1.31,1.31,0,0,0,.2-.753,1.179,1.179,0,0,0-.213-.762.777.777,0,0,0-.638-.259h-.646Zm1.736,1.438a1.368,1.368,0,0,0-.221-.791.734.734,0,0,0-.647-.323h-.868v2.187h.868Q3050.942,536.579,3050.942,535.506Z" transform="translate(-3048.338 -529.712)" fill="url(#a)"/><path d="M3086.079,536.468v.434h-3.038v-5.216h2.885v.434h-2.016v1.9h1.838v.451h-1.838v2Z" transform="translate(-3075.188 -529.712)" fill="url(#a)"/><path d="M3116.22,535.345h-2.076l-.494,1.557h-.493l1.685-5.216h1.038l1.685,5.216h-.843Zm-.136-.417-.9-2.833-.9,2.833Z" transform="translate(-3098.488 -529.712)" fill="url(#a)"/><path d="M3154.462,535.175a1.886,1.886,0,0,1-.276,1.068,1.543,1.543,0,0,1-.7.587,2.3,2.3,0,0,1-.889.174,2.257,2.257,0,0,1-1.4-.421,1.654,1.654,0,0,1-.557-1.408v-3.489h.868v3.489a1.54,1.54,0,0,0,.311,1.068,1.086,1.086,0,0,0,.838.336,1.322,1.322,0,0,0,.923-.345,1.364,1.364,0,0,0,.379-1.059v-3.489h.5Z" transform="translate(-3127.49 -529.712)" fill="url(#a)"/><path d="M3188.761,531.686v.434h-1.378V536.9h-.868V532.12h-1.4v-.434Z" transform="translate(-3154.165 -529.712)" fill="url(#a)"/><path d="M3222.333,529.72v.434H3219.3v-5.216h2.884v.434h-2.016v1.9H3222v.451h-1.837v2Zm-1.081-6.756.527.613-1.4.927-.178-.2Z" transform="translate(-3180.608 -522.964)" fill="url(#a)"/></g><g transform="translate(0 9.099)"><path d="M3048.658,563.868a.5.5,0,0,1-.162.389.609.609,0,0,1-.425.147.254.254,0,0,1-.115-.021.071.071,0,0,1-.037-.059.015.015,0,0,1,0-.006l0-.006a.009.009,0,0,1,.008,0,.425.425,0,0,0,.1.019.362.362,0,0,0,.272-.111.421.421,0,0,0,.107-.306.448.448,0,0,0-.112-.322.431.431,0,0,0-.329-.118c-.081,0-.125.009-.133.027a.793.793,0,0,0-.013.2v1.137a.859.859,0,0,0,.013.2c0,.012.028.023.074.031a.672.672,0,0,0,.11.012.073.073,0,0,1,.009.039.058.058,0,0,1-.009.039c-.183-.009-.286-.013-.312-.013s-.132,0-.315.013a.059.059,0,0,1-.009-.039.071.071,0,0,1,.009-.039.669.669,0,0,0,.109-.012c.046-.008.071-.018.075-.031a.859.859,0,0,0,.013-.2V563.7a.859.859,0,0,0-.013-.2c0-.012-.028-.023-.075-.031a.669.669,0,0,0-.109-.012.071.071,0,0,1-.009-.039.059.059,0,0,1,.009-.039c.183.009.287.013.315.013l.169,0,.209,0a.689.689,0,0,1,.273.054.51.51,0,0,1,.211.166A.422.422,0,0,1,3048.658,563.868Z" transform="translate(-3047.387 -563.333)" fill="url(#a)"/><path d="M3058.422,563.321a.845.845,0,0,1,.334.067.879.879,0,0,1,.277.185.856.856,0,0,1,.189.288.945.945,0,0,1,.07.365.9.9,0,0,1-.07.35.918.918,0,0,1-.188.288.9.9,0,0,1-.278.192.816.816,0,0,1-.334.071.842.842,0,0,1-.333-.067.841.841,0,0,1-.462-.472.947.947,0,0,1-.07-.363.934.934,0,0,1,.256-.64.887.887,0,0,1,.276-.193A.8.8,0,0,1,3058.422,563.321Zm-.04.091a.493.493,0,0,0-.212.045.469.469,0,0,0-.159.118.7.7,0,0,0-.107.172.9.9,0,0,0-.063.2,1.19,1.19,0,0,0-.019.216,1.14,1.14,0,0,0,.043.311,1.063,1.063,0,0,0,.122.279.626.626,0,0,0,.2.2.51.51,0,0,0,.274.077.5.5,0,0,0,.212-.045.463.463,0,0,0,.159-.119.71.71,0,0,0,.108-.173.879.879,0,0,0,.064-.206,1.212,1.212,0,0,0,.019-.217,1.118,1.118,0,0,0-.044-.31,1.056,1.056,0,0,0-.124-.277.632.632,0,0,0-.2-.2A.513.513,0,0,0,3058.382,563.412Z" transform="translate(-3055.255 -563.287)" fill="url(#a)"/><path d="M3070.51,563.388a.613.613,0,0,1,.188.03.648.648,0,0,1,.174.086.424.424,0,0,1,.131.146.39.39,0,0,1-.061.464.585.585,0,0,1-.253.175,7.085,7.085,0,0,0,.431.627.416.416,0,0,0,.128.115.429.429,0,0,0,.174.045.075.075,0,0,1,0,.042.138.138,0,0,1-.008.035,1.266,1.266,0,0,1-.352-.032.38.38,0,0,1-.131-.072.329.329,0,0,1-.043-.045c-.023-.031-.081-.114-.171-.25s-.176-.263-.253-.383a.09.09,0,0,0-.08-.032h-.142v.5a.874.874,0,0,0,.013.2c0,.012.029.023.075.031a.669.669,0,0,0,.11.012.073.073,0,0,1,.009.039.058.058,0,0,1-.009.039q-.274-.013-.312-.013t-.315.013a.055.055,0,0,1-.009-.039.071.071,0,0,1,.009-.039.662.662,0,0,0,.109-.012c.047-.008.071-.018.075-.031a1,1,0,0,0,.013-.2V563.7a.859.859,0,0,0-.013-.2c0-.012-.028-.023-.075-.031a.664.664,0,0,0-.109-.012.073.073,0,0,1-.009-.039.058.058,0,0,1,.009-.039q.274.013.315.013l.169,0Zm.294.486a.415.415,0,0,0-.1-.293.406.406,0,0,0-.312-.107c-.081,0-.125.009-.134.027a.812.812,0,0,0-.013.2v.558h.143a.429.429,0,0,0,.289-.107A.348.348,0,0,0,3070.8,563.874Z" transform="translate(-3064.734 -563.333)" fill="url(#a)"/><path d="M3088.63,563.391a1.127,1.127,0,0,1,.392.066.844.844,0,0,1,.3.182.8.8,0,0,1,.184.274.9.9,0,0,1,.065.343,1.234,1.234,0,0,1-.028.268.846.846,0,0,1-.1.244.722.722,0,0,1-.178.2.834.834,0,0,1-.278.135,1.373,1.373,0,0,1-.39.051h-.667a.057.057,0,0,1-.008-.039.071.071,0,0,1,.008-.039.672.672,0,0,0,.11-.012c.046-.008.071-.018.075-.031a.864.864,0,0,0,.013-.2V563.7a.864.864,0,0,0-.013-.2c0-.012-.028-.023-.075-.031a.672.672,0,0,0-.11-.012.072.072,0,0,1-.008-.039.057.057,0,0,1,.008-.039c.183.009.287.013.315.013h.387Zm-.27.312v1.137a.555.555,0,0,0,.016.192q.027.037.219.037a.772.772,0,0,0,.271-.046.668.668,0,0,0,.224-.137.622.622,0,0,0,.155-.238.933.933,0,0,0,.057-.337,1.169,1.169,0,0,0-.041-.318.749.749,0,0,0-.11-.237.653.653,0,0,0-.166-.159.691.691,0,0,0-.2-.093.872.872,0,0,0-.226-.029c-.116,0-.178.01-.184.029A.747.747,0,0,0,3088.36,563.7Z" transform="translate(-3078.747 -563.333)" fill="url(#a)"/><path d="M3099.294,564.766q.352-.906.515-1.321a.18.18,0,0,1,.047-.049.112.112,0,0,1,.054-.029.015.015,0,0,1,.009,0l.007,0,.543,1.425.068.176a.135.135,0,0,0,.083.066.317.317,0,0,0,.1.025.073.073,0,0,1,.008.039.205.205,0,0,1,0,.038l-.293-.013-.1,0-.106.006-.1.005a.057.057,0,0,1-.009-.039.055.055,0,0,1,.011-.039.459.459,0,0,0,.082-.01.154.154,0,0,0,.068-.025.052.052,0,0,0,.01-.037.715.715,0,0,0-.045-.166c-.03-.086-.06-.167-.091-.242l-.045-.112a.022.022,0,0,0-.016-.011q-.034,0-.264,0c-.112,0-.208,0-.288.008l-.013.008q-.075.2-.12.326a.6.6,0,0,0-.037.189.046.046,0,0,0,.025.039.177.177,0,0,0,.06.024.609.609,0,0,0,.061.01l.039,0a.07.07,0,0,1,.007.036.125.125,0,0,1,0,.042l-.084-.005-.084-.006-.091,0-.1,0-.093.006-.1.005s-.005-.015-.005-.035a.122.122,0,0,1,.005-.043.367.367,0,0,0,.088-.014.129.129,0,0,0,.072-.037A1.1,1.1,0,0,0,3099.294,564.766Zm.523-1.075-.246.651c0,.007,0,.011.005.011q.139.005.243.005t.224-.008a.007.007,0,0,0,.005,0,.018.018,0,0,0,0-.008v0Z" transform="translate(-3087.322 -563.324)" fill="url(#o)"/><path d="M3110.906,563.357c.085,0,.153,0,.2-.005q.067.1.48.608t.566.716v-1.011c0-.055,0-.095,0-.119a.15.15,0,0,0-.023-.065c-.007-.012-.036-.024-.087-.036a.575.575,0,0,0-.115-.017.071.071,0,0,1-.01-.04.085.085,0,0,1,0-.037c.178.009.281.013.307.013l.1,0,.093-.006.1-.005a.079.079,0,0,1,0,.077.638.638,0,0,0-.116.016c-.053.011-.084.023-.092.037a.161.161,0,0,0-.022.064,1.014,1.014,0,0,0,0,.117v1.086q0,.229.005.368c0,.011-.013.016-.035.016a.1.1,0,0,1-.042-.015.163.163,0,0,1-.052-.047l-1.163-1.471v1.212c0,.055,0,.095,0,.119a.146.146,0,0,0,.022.065c.007.012.036.024.086.036a.556.556,0,0,0,.114.017.073.073,0,0,1,.01.04.088.088,0,0,1,0,.037q-.267-.013-.3-.013l-.1,0-.093.006-.1.005a.079.079,0,0,1,0-.077.659.659,0,0,0,.116-.016c.053-.011.083-.023.092-.038a.156.156,0,0,0,.022-.064,1.012,1.012,0,0,0,0-.117v-1.158a1.016,1.016,0,0,0,0-.117.158.158,0,0,0-.022-.064q-.012-.021-.092-.037a.663.663,0,0,0-.116-.016.079.079,0,0,1,0-.077l.132.007C3110.825,563.356,3110.872,563.357,3110.906,563.357Z" transform="translate(-3096.313 -563.305)" fill="url(#a)"/><path d="M3123.779,563.393q.038,0,.312-.013a.057.057,0,0,1,.009.039.072.072,0,0,1-.009.039.664.664,0,0,0-.109.012c-.046.008-.071.018-.075.031a.879.879,0,0,0-.013.2v1.139a.879.879,0,0,0,.013.2c0,.012.029.023.075.031a.664.664,0,0,0,.109.012.071.071,0,0,1,.009.039.057.057,0,0,1-.009.039q-.274-.013-.312-.013t-.315.013a.055.055,0,0,1-.009-.039.071.071,0,0,1,.009-.039.664.664,0,0,0,.109-.012c.046-.008.071-.018.075-.031a.879.879,0,0,0,.013-.2V563.7a.879.879,0,0,0-.013-.2c0-.012-.029-.023-.075-.031a.664.664,0,0,0-.109-.012.072.072,0,0,1-.009-.039.055.055,0,0,1,.009-.039Q3123.738,563.393,3123.779,563.393Z" transform="translate(-3106.241 -563.333)" fill="url(#a)"/><path d="M3131.336,564.837a.52.52,0,0,0,.016.192.117.117,0,0,0,.059.023q.036,0,.13,0h.152a.868.868,0,0,0,.172-.018.381.381,0,0,0,.14-.054.479.479,0,0,0,.168-.27c0-.011.015-.016.037-.016a.1.1,0,0,1,.067.016c-.008.023-.021.06-.04.111l-.045.123c-.011.032-.022.067-.035.108a.808.808,0,0,0-.024.1q-.138,0-.431-.005t-.479-.005c-.044,0-.1,0-.167,0l-.151,0a.058.058,0,0,1-.009-.039.073.073,0,0,1,.009-.039.669.669,0,0,0,.11-.012c.046-.008.071-.018.075-.031a.859.859,0,0,0,.013-.2V563.7a.859.859,0,0,0-.013-.2c0-.012-.029-.023-.075-.031a.669.669,0,0,0-.11-.012.074.074,0,0,1-.009-.039.058.058,0,0,1,.009-.039q.274.013.315.013t.312-.013a.055.055,0,0,1,.009.039.069.069,0,0,1-.009.039.664.664,0,0,0-.109.012c-.047.008-.071.018-.075.031a.728.728,0,0,0-.013.2Z" transform="translate(-3111.999 -563.333)" fill="url(#r)"/><path d="M3142.115,563.321a.843.843,0,0,1,.333.067.874.874,0,0,1,.278.185.856.856,0,0,1,.189.288.945.945,0,0,1,.07.365.9.9,0,0,1-.07.35.914.914,0,0,1-.188.288.9.9,0,0,1-.278.192.814.814,0,0,1-.333.071.842.842,0,0,1-.333-.067.844.844,0,0,1-.463-.472.951.951,0,0,1-.069-.363.931.931,0,0,1,.255-.64.891.891,0,0,1,.277-.193A.8.8,0,0,1,3142.115,563.321Zm-.04.091a.491.491,0,0,0-.211.045.467.467,0,0,0-.159.118.686.686,0,0,0-.107.172.891.891,0,0,0-.063.2,1.19,1.19,0,0,0-.019.216,1.131,1.131,0,0,0,.043.311,1.063,1.063,0,0,0,.122.279.629.629,0,0,0,.2.2.51.51,0,0,0,.274.077.5.5,0,0,0,.212-.045.464.464,0,0,0,.16-.119.71.71,0,0,0,.108-.173.878.878,0,0,0,.064-.206,1.212,1.212,0,0,0,.02-.217,1.118,1.118,0,0,0-.044-.31,1.055,1.055,0,0,0-.123-.277.638.638,0,0,0-.2-.2A.514.514,0,0,0,3142.075,563.412Z" transform="translate(-3120.01 -563.287)" fill="url(#o)"/><path d="M3161.1,563.393q.038,0,.312-.013a.065.065,0,0,1,.009.043.083.083,0,0,1-.009.043.69.69,0,0,0-.11.012c-.046.008-.071.018-.075.031a.872.872,0,0,0-.013.2v.467l.006.008.419.008.408-.008a.015.015,0,0,0,.005-.011v-.464a.872.872,0,0,0-.013-.2c0-.012-.028-.023-.075-.031a.691.691,0,0,0-.109-.012.08.08,0,0,1-.009-.043.066.066,0,0,1,.009-.043c.182.009.287.013.315.013s.13,0,.312-.013a.064.064,0,0,1,.009.043.08.08,0,0,1-.009.043.685.685,0,0,0-.109.012c-.046.008-.071.018-.075.031a.857.857,0,0,0-.013.2v1.124a.857.857,0,0,0,.013.2c0,.012.028.023.075.031a.685.685,0,0,0,.109.012.08.08,0,0,1,.009.043.064.064,0,0,1-.009.043q-.274-.013-.312-.013c-.028,0-.133,0-.315.013a.066.066,0,0,1-.009-.043.08.08,0,0,1,.009-.043.691.691,0,0,0,.109-.012c.046-.008.071-.018.075-.031a.872.872,0,0,0,.013-.2V564.3l-.005-.011-.181-.006c-.1,0-.175,0-.228,0a2.489,2.489,0,0,0-.421.016l0,.005v.528a.872.872,0,0,0,.013.2c0,.012.029.023.075.031a.69.69,0,0,0,.11.012.083.083,0,0,1,.009.043.065.065,0,0,1-.009.043q-.274-.013-.312-.013t-.315.013a.063.063,0,0,1-.009-.043.078.078,0,0,1,.009-.043.691.691,0,0,0,.109-.012c.046-.008.071-.018.075-.031a.857.857,0,0,0,.013-.2v-1.124a.857.857,0,0,0-.013-.2c0-.012-.028-.023-.075-.031a.691.691,0,0,0-.109-.012.078.078,0,0,1-.009-.043.063.063,0,0,1,.009-.043Q3161.057,563.393,3161.1,563.393Z" transform="translate(-3135.115 -563.333)" fill="url(#a)"/><path d="M3173.281,563.375q.12,0,.414-.01t.445-.009q.011.077.041.2t.037.159a.068.068,0,0,1-.048.013c-.022,0-.035-.006-.038-.019a.348.348,0,0,0-.115-.2.336.336,0,0,0-.195-.051h-.229c-.116,0-.178.01-.184.029a.684.684,0,0,0-.013.19v.5c0,.006.009.01.031.012a.824.824,0,0,0,.084,0h.246a.435.435,0,0,0,.07-.008.1.1,0,0,0,.075-.047.148.148,0,0,0,.021-.046l.018-.067a.145.145,0,0,1,.005-.023c0-.012.016-.019.04-.019a.062.062,0,0,1,.045.013v.5a.062.062,0,0,1-.043.011c-.023,0-.037-.007-.042-.021a1.077,1.077,0,0,0-.042-.134.1.1,0,0,0-.033-.042.93.93,0,0,0-.283-.021h-.083l-.043,0-.033,0a.074.074,0,0,0-.025.008c-.006,0-.008.006-.008.01v.507c0,.031,0,.068,0,.111a.142.142,0,0,0,.014.073.117.117,0,0,0,.059.023c.024,0,.067,0,.13,0h.128a.921.921,0,0,0,.189-.02.46.46,0,0,0,.147-.052.255.255,0,0,0,.092-.1,1.282,1.282,0,0,0,.076-.173c0-.011.015-.016.037-.016a.1.1,0,0,1,.067.016c-.008.023-.021.06-.04.111l-.045.123c-.011.032-.022.067-.034.108a.861.861,0,0,0-.025.1c-.092,0-.235,0-.431-.005s-.355-.005-.479-.005c-.043,0-.1,0-.167,0l-.151,0a.057.057,0,0,1-.009-.039.073.073,0,0,1,.009-.039.672.672,0,0,0,.11-.012c.046-.008.071-.018.075-.031a.879.879,0,0,0,.013-.2v-1.139a.879.879,0,0,0-.013-.2c0-.012-.029-.023-.075-.031a.672.672,0,0,0-.11-.012.074.074,0,0,1-.009-.039.057.057,0,0,1,.009-.039C3173.149,563.37,3173.253,563.375,3173.281,563.375Z" transform="translate(-3144.541 -563.314)" fill="url(#u)"/><path d="M3184.2,563.388a.613.613,0,0,1,.188.03.652.652,0,0,1,.174.086.424.424,0,0,1,.131.146.39.39,0,0,1-.061.464.586.586,0,0,1-.253.175,7.092,7.092,0,0,0,.431.627.414.414,0,0,0,.128.115.429.429,0,0,0,.174.045.073.073,0,0,1,0,.042.131.131,0,0,1-.007.035,1.266,1.266,0,0,1-.352-.032.386.386,0,0,1-.131-.072.327.327,0,0,1-.042-.045c-.023-.031-.081-.114-.171-.25s-.176-.263-.253-.383a.09.09,0,0,0-.08-.032h-.141v.5a.859.859,0,0,0,.013.2c0,.012.029.023.074.031a.672.672,0,0,0,.11.012.073.073,0,0,1,.009.039.057.057,0,0,1-.009.039q-.274-.013-.312-.013t-.315.013a.056.056,0,0,1-.009-.039.068.068,0,0,1,.009-.039.664.664,0,0,0,.109-.012c.046-.008.071-.018.075-.031a1.018,1.018,0,0,0,.013-.2V563.7a.885.885,0,0,0-.013-.2c0-.012-.029-.023-.075-.031a.667.667,0,0,0-.109-.012.073.073,0,0,1-.009-.039.056.056,0,0,1,.009-.039q.274.013.315.013l.17,0Zm.293.486a.415.415,0,0,0-.1-.293.406.406,0,0,0-.312-.107c-.081,0-.125.009-.134.027a.806.806,0,0,0-.013.2v.558h.143a.428.428,0,0,0,.289-.107A.348.348,0,0,0,3184.491,563.874Z" transform="translate(-3152.693 -563.333)" fill="url(#a)"/><path d="M3195.149,563.388a.917.917,0,0,1,.149.012.7.7,0,0,1,.144.041.479.479,0,0,1,.125.073.331.331,0,0,1,.085.114.388.388,0,0,1-.057.4.453.453,0,0,1-.179.141c-.008,0-.008.008,0,.013a.317.317,0,0,1,.117.033.581.581,0,0,1,.127.083.449.449,0,0,1,.1.136.388.388,0,0,1,.043.177.489.489,0,0,1-.18.395.9.9,0,0,1-.559.144h-.614a.057.057,0,0,1-.009-.039.069.069,0,0,1,.009-.039.669.669,0,0,0,.109-.012c.046-.008.071-.018.075-.031a.874.874,0,0,0,.013-.2V563.7a.874.874,0,0,0-.013-.2c0-.012-.028-.023-.075-.031a.669.669,0,0,0-.109-.012.069.069,0,0,1-.009-.039.057.057,0,0,1,.009-.039c.182.009.287.013.315.013l.169,0Zm-.264.771h.223a.324.324,0,0,0,.251-.092.315.315,0,0,0,.084-.22.347.347,0,0,0-.112-.275.434.434,0,0,0-.3-.1c-.081,0-.125.009-.133.027a.676.676,0,0,0-.013.2Zm0,.1v.579a.8.8,0,0,0,.005.1.163.163,0,0,0,.019.077.14.14,0,0,0,.077.039.757.757,0,0,0,.134.009q.424,0,.424-.392,0-.416-.5-.416Z" transform="translate(-3161.167 -563.333)" fill="url(#o)"/><path d="M3205.35,563.375c.08,0,.219,0,.414-.01s.345-.009.445-.009q.011.077.041.2t.037.159a.068.068,0,0,1-.048.013c-.022,0-.035-.006-.037-.019a.348.348,0,0,0-.115-.2.336.336,0,0,0-.194-.051h-.229q-.175,0-.184.029a.7.7,0,0,0-.013.19v.5c0,.006.01.01.031.012a.823.823,0,0,0,.084,0h.245a.441.441,0,0,0,.07-.008.126.126,0,0,0,.047-.017.129.129,0,0,0,.028-.03.142.142,0,0,0,.021-.046c.005-.018.011-.04.018-.067a.172.172,0,0,1,.006-.023c0-.012.016-.019.04-.019a.062.062,0,0,1,.045.013v.5a.062.062,0,0,1-.043.011c-.023,0-.037-.007-.042-.021a1.123,1.123,0,0,0-.042-.134.1.1,0,0,0-.033-.042.927.927,0,0,0-.283-.021h-.083l-.043,0-.033,0a.076.076,0,0,0-.025.008c-.005,0-.008.006-.008.01v.507c0,.031,0,.068,0,.111a.144.144,0,0,0,.014.073.117.117,0,0,0,.059.023c.024,0,.067,0,.13,0h.128a.919.919,0,0,0,.189-.02.464.464,0,0,0,.147-.052.255.255,0,0,0,.092-.1,1.348,1.348,0,0,0,.076-.173c0-.011.015-.016.037-.016a.1.1,0,0,1,.067.016c-.008.023-.021.06-.04.111l-.045.123c-.011.032-.022.067-.035.108a.854.854,0,0,0-.024.1q-.138,0-.431-.005t-.479-.005c-.044,0-.1,0-.167,0l-.151,0a.055.055,0,0,1-.009-.039.069.069,0,0,1,.009-.039.669.669,0,0,0,.109-.012c.046-.008.071-.018.075-.031a.874.874,0,0,0,.013-.2v-1.139a.874.874,0,0,0-.013-.2c0-.012-.028-.023-.075-.031a.669.669,0,0,0-.109-.012.069.069,0,0,1-.009-.039.055.055,0,0,1,.009-.039Q3205.309,563.375,3205.35,563.375Z" transform="translate(-3169.353 -563.314)" fill="url(#a)"/><path d="M3216.267,563.388a.61.61,0,0,1,.188.03.651.651,0,0,1,.175.086.423.423,0,0,1,.131.146.389.389,0,0,1-.062.464.582.582,0,0,1-.253.175,7.1,7.1,0,0,0,.431.627.416.416,0,0,0,.127.115.428.428,0,0,0,.174.045.071.071,0,0,1,0,.042.131.131,0,0,1-.007.035,1.265,1.265,0,0,1-.352-.032.384.384,0,0,1-.131-.072.343.343,0,0,1-.042-.045c-.023-.031-.08-.114-.171-.25s-.176-.263-.253-.383a.09.09,0,0,0-.08-.032H3216v.5a.859.859,0,0,0,.013.2c0,.012.028.023.075.031a.669.669,0,0,0,.11.012.071.071,0,0,1,.008.039.057.057,0,0,1-.008.039q-.274-.013-.312-.013t-.315.013a.057.057,0,0,1-.008-.039.071.071,0,0,1,.008-.039.669.669,0,0,0,.11-.012c.046-.008.071-.018.075-.031a1.063,1.063,0,0,0,.013-.2V563.7a.859.859,0,0,0-.013-.2c0-.012-.028-.023-.075-.031a.667.667,0,0,0-.109-.012.069.069,0,0,1-.009-.039.056.056,0,0,1,.009-.039q.274.013.315.013l.169,0Zm.294.486a.414.414,0,0,0-.1-.293.405.405,0,0,0-.312-.107c-.081,0-.125.009-.133.027a.781.781,0,0,0-.013.2v.558h.143a.43.43,0,0,0,.289-.107A.348.348,0,0,0,3216.561,563.874Z" transform="translate(-3177.506 -563.333)" fill="url(#a)"/><path d="M3227.212,563.222a.345.345,0,0,0,.083-.013.379.379,0,0,0,.077-.026.053.053,0,0,1,.051-.005q.032.279.069.459a.062.062,0,0,1-.051.019.044.044,0,0,1-.037-.013.585.585,0,0,0-.095-.237.2.2,0,0,0-.161-.089h-.339v1.361a.86.86,0,0,0,.013.2c0,.012.028.023.074.031a.664.664,0,0,0,.109.012.07.07,0,0,1,.009.039.056.056,0,0,1-.009.039q-.274-.013-.312-.013t-.315.013a.058.058,0,0,1-.009-.039.07.07,0,0,1,.009-.039.664.664,0,0,0,.109-.012c.046-.008.071-.018.075-.031a.86.86,0,0,0,.013-.2v-1.361h-.344a.2.2,0,0,0-.162.089.585.585,0,0,0-.094.237.044.044,0,0,1-.037.013.062.062,0,0,1-.051-.019q.037-.18.069-.459a.073.073,0,0,1,.061.008.337.337,0,0,0,.072.025.316.316,0,0,0,.077.012Z" transform="translate(-3185.494 -563.172)" fill="url(#u)"/></g></g></g></svg>