<svg xmlns="http://www.w3.org/2000/svg" width="237.999" height="74.436" viewBox="0 0 237.999 74.436"><g transform="translate(-2840.705 -379.707)"><g transform="translate(2963.667 379.707)"><path d="M806.279-352.9a33.128,33.128,0,0,0-9.374-10.958,33.349,33.349,0,0,0-12.19-5.661,35.628,35.628,0,0,0-12.838-.69,37.267,37.267,0,0,0-12.375,3.863,36.6,36.6,0,0,0-5.7,3.648,35.281,35.281,0,0,0-5.066,4.869,34.575,34.575,0,0,0-6.865,13.012,37.768,37.768,0,0,0-1.04,15.154,37.562,37.562,0,0,0,1.716,7.235c-8.514-12.475-18.739-12.378-23.741-12.577,1.779-.416,7.8-2.027,11.746-5.549l.052-.048a15.72,15.72,0,0,0,3.3-3.3,18.064,18.064,0,0,0,2.7-5.244,15.968,15.968,0,0,0,.741-5.773,16.406,16.406,0,0,0-1.43-5.826,14.747,14.747,0,0,0-3.6-4.661,16.937,16.937,0,0,0-4.978-2.966,23.631,23.631,0,0,0-4.343-1.271q-2.225-.422-4.449-.742a31.861,31.861,0,0,0-3.707-.212H702.508v-.036h-6.635v74.254h6.635v-1.181a1,1,0,0,0,.038-.265V-323.2c0-3.265-.015-6.576-.038-9.913v-35.255a2.1,2.1,0,0,1,.2-.486c.175-.318.583-.477,1.218-.477q.211,0,1.695-.053c.3-.011.621-.019.943-.027.207,0,.435-.006.679-.014q.775-.012,1.609-.012,1.748,0,3.231-.053.932-.033,1.4-.045c6.71.321,15.237,2.826,16.685,15.936.013.367.025.735.025,1.11a28.6,28.6,0,0,1-.53,5.614c-.045.251-.107.488-.166.729a13.637,13.637,0,0,1-6.038,7.256c-.848.482-1.708.919-2.581,1.319a31.758,31.758,0,0,1-11.269,2.257h-.436v1.1h3.558c12.43,2.667,22.35,8.4,27.831,15.59,0,0,9.429,13.358,21.3,18.627,0,0,0,0,0-.007a34.813,34.813,0,0,0,4.207,1.826,34.691,34.691,0,0,0,6.406,1.616,32.834,32.834,0,0,0,6.627.3,30.242,30.242,0,0,0,13-3.745,34.1,34.1,0,0,0,10.7-9.452,40.307,40.307,0,0,0,6.62-13.487,41.448,41.448,0,0,0,1.266-15.382A40.334,40.334,0,0,0,806.279-352.9ZM803.6-324.826a35.678,35.678,0,0,1-5.066,11.559,32,32,0,0,1-19.775,13.5,25.693,25.693,0,0,1-12.143-.492,26.957,26.957,0,0,1-10.893-6.27,30.742,30.742,0,0,1-7.306-10.84,40.144,40.144,0,0,1-2.792-12.888,45.056,45.056,0,0,1,1.166-12.962,43.71,43.71,0,0,1,4.82-12.034,31.984,31.984,0,0,1,8.595-9.66,25.121,25.121,0,0,1,11.733-4.653,24.5,24.5,0,0,1,12.337,1.72,29.324,29.324,0,0,1,10.219,7.34,39.232,39.232,0,0,1,6.868,10.627,38.441,38.441,0,0,1,3.177,12.322A39.524,39.524,0,0,1,803.6-324.826Z" transform="translate(-695.873 370.636)" fill="rgba(111,130,124,0.13)"/></g><g transform="translate(2840.705 379.707)"><path d="M947.5-338.321a41.436,41.436,0,0,0,1.266,15.382,40.3,40.3,0,0,0,6.62,13.487,34.093,34.093,0,0,0,10.7,9.452,30.24,30.24,0,0,0,13,3.745,32.831,32.831,0,0,0,6.626-.3,34.689,34.689,0,0,0,6.406-1.616A34.781,34.781,0,0,0,996.317-300s0,0,0,.007c11.872-5.269,21.3-18.627,21.3-18.627,5.481-7.192,15.4-12.923,27.832-15.59h3.557v-1.1h-.436a31.758,31.758,0,0,1-11.269-2.257c-.872-.4-1.733-.837-2.58-1.319a13.638,13.638,0,0,1-6.039-7.256c-.058-.241-.12-.478-.166-.729a28.638,28.638,0,0,1-.529-5.614c0-.375.012-.743.025-1.11,1.448-13.11,9.976-15.615,16.685-15.936q.472.012,1.4.045,1.484.055,3.231.053c.557,0,1.092,0,1.609.012.244.008.472.014.679.014.322.008.638.016.943.027q1.484.054,1.694.053c.636,0,1.043.159,1.218.477a2.081,2.081,0,0,1,.2.486v35.255c-.023,3.338-.038,6.648-.038,9.913v25.37a1,1,0,0,0,.038.265v1.181h6.635v-74.254h-6.635v.036h-12.326a31.856,31.856,0,0,0-3.707.212q-2.225.318-4.45.742a23.637,23.637,0,0,0-4.343,1.271,16.931,16.931,0,0,0-4.978,2.966,14.747,14.747,0,0,0-3.6,4.661,16.414,16.414,0,0,0-1.43,5.826,15.968,15.968,0,0,0,.742,5.773,18.074,18.074,0,0,0,2.7,5.244,15.746,15.746,0,0,0,3.3,3.3l.052.048c3.948,3.522,9.967,5.133,11.747,5.549-5,.2-15.227.1-23.742,12.577a37.521,37.521,0,0,0,1.716-7.235,37.749,37.749,0,0,0-1.04-15.154,34.569,34.569,0,0,0-6.865-13.012,35.275,35.275,0,0,0-5.066-4.869,36.626,36.626,0,0,0-5.7-3.648,37.267,37.267,0,0,0-12.374-3.863,35.631,35.631,0,0,0-12.838.69,33.349,33.349,0,0,0-12.189,5.661A33.122,33.122,0,0,0,951.9-352.9,40.317,40.317,0,0,0,947.5-338.321Zm6.142.761a38.43,38.43,0,0,1,3.177-12.322,39.222,39.222,0,0,1,6.868-10.627,29.32,29.32,0,0,1,10.219-7.34,24.5,24.5,0,0,1,12.337-1.72,25.121,25.121,0,0,1,11.733,4.653,31.989,31.989,0,0,1,8.595,9.66,43.711,43.711,0,0,1,4.82,12.034,45.037,45.037,0,0,1,1.166,12.962,40.137,40.137,0,0,1-2.792,12.888,30.73,30.73,0,0,1-7.306,10.84,26.954,26.954,0,0,1-10.893,6.27,25.692,25.692,0,0,1-12.143.492,32,32,0,0,1-19.775-13.5,35.676,35.676,0,0,1-5.066-11.559A39.524,39.524,0,0,1,953.639-337.56Z" transform="translate(-947.271 370.636)" fill="rgba(111,130,124,0.13)"/></g></g></svg>